<svg xmlns="http://www.w3.org/2000/svg" xmlns:osb="http://www.openswatchbook.org/uri/2009/osb" xmlns:xlink="http://www.w3.org/1999/xlink" viewBox="0 0 206.56 44.48"><defs/><defs><linearGradient id="b" osb:paint="solid"><stop offset="0" stop-color="#ff0039"/></linearGradient><linearGradient id="a" osb:paint="solid"><stop offset="0" stop-color="#ff0039"/></linearGradient><linearGradient id="c" x1="-37.344" x2="-14.757" y1="-22.771" y2="-22.771" gradientTransform="translate(69.24 45.644)" gradientUnits="userSpaceOnUse" xlink:href="#a"/><linearGradient id="e" x1="-18.424" x2="9.878" y1="-22.393" y2="-22.393" gradientTransform="matrix(1.466 0 0 1.466 55.47 56.413)" gradientUnits="userSpaceOnUse" xlink:href="#b"/><filter id="d" width="1.123" height="1.129" x="-.062" y="-.064" color-interpolation-filters="sRGB"><feGaussianBlur stdDeviation=".51"/></filter><filter id="f" width="1.152" height="1.144" x="-.076" y="-.072" color-interpolation-filters="sRGB"><feGaussianBlur stdDeviation=".636"/></filter><filter id="g" width="1.418" height="1.655" x="-.209" y="-.328" color-interpolation-filters="sRGB"><feGaussianBlur stdDeviation=".3"/></filter></defs><path fill="none" stroke="#000" d="M-113.434 24.466V56.96l30.268-.194 3.675-7.93h-25.916v-4.158h20.114l3.868-8.026-23.982.193-.097-4.061 22.145-.097 3.965-7.833-33.847-.097M343.163 153.206l49.146-24.36"/><path fill="url(#c)" d="M32.215 12.399v20.76l19.34-.123 2.347-5.067H37.344v-2.657h12.851l2.472-5.128-15.323.124-.062-2.595 14.149-.062 2.533-5.005-21.625-.062" transform="translate(-45.621 -13.419) scale(1.54138)"/><path fill="none" stroke="#000" stroke-width="1.6" d="M33.066 13.515l.214 18.376 18.056.534.427-3.205-15.598.107.534-4.487 13.355-.641 1.282-2.885-14.21.32-.961-4.807 14.21-.107 2.563-3.312z" filter="url(#d)" opacity=".081" transform="translate(-45.621 -13.419) scale(1.54138)"/><path fill="#c00034" stroke="#000" stroke-width=".0149912" d="M4.035 5.693l.9-.256 31.948-.083.675.72-33.332-.095h0" opacity=".881"/><path fill="url(#e)" d="M34.626 3.83l.244 10.762 9.051 9.05L29.543 37.93l10.831.024 8.806-8.929 14.432 14.31-.244-11.007-8.806-8.684 14.31-14.31h-11.13l-8.562 8.806z" transform="translate(2.249 -3.061) scale(1.06944)"/><path fill="#c00034" d="M39.28 1.034l.46-.125 14.656 14.238.448 1.19z"/><path fill="#c00034" d="M54.396 15.147l7.454-7.642L64 6.92l-9.156 9.417z"/><path fill="none" stroke="#000" stroke-width=".433" d="M56.836 13.213l-.195 3.882 5.83 5.37.502.341-7.01 8.195 3.26.703 5.851-6.336 8.795 8.618-.173-4.58-7.041-5.906 9.394-8.741-5.711-.014-5.378 5.479-7.709-7.373-.28.077z" filter="url(#f)" opacity=".268" transform="translate(-46.983 -14.291) scale(1.56779)"/><g><text style="line-height:1.25;-inkscape-font-specification:Arial" x="71.396" y="36.452" fill="#2f2f2f" stroke-width=".769" font-family="Arial" font-size="30.742" font-weight="400" transform="matrix(.89167 0 0 1.02787 8.141 -3.09)"><tspan x="71.396" y="36.452" style="-inkscape-font-specification:'Arial Bold'" font-weight="700">BULLETIN</tspan></text><path fill="#ff0039" stroke="#ff0039" stroke-width=".186" d="M180.32 7.819l.094 3.65 2.433-.936 3.182 1.59v-4.96l-3.088 1.685z" transform="matrix(1.24489 0 0 1.1975 -44.78 -4.363)"/><path fill="none" stroke="#030000" stroke-width=".096" d="M154.726 12.93l.057 1.618 1.47-.414 1.922.705V12.64l-1.866.747z" filter="url(#g)" opacity=".635" transform="matrix(1.825 0 0 1.75554 -102.09 -16.938)"/></g></svg>